<?xml version="1.0" encoding="UTF-8" standalone="no"?>
<svg
   version="1.1"
   id="Layer_1"
   x="0px"
   y="0px"
   width="400"
   viewBox="0 0 400 400"
   enable-background="new 0 0 2048 2048"
   xml:space="preserve"
   height="400"
   xmlns="http://www.w3.org/2000/svg"
   xmlns:svg="http://www.w3.org/2000/svg"><defs
   id="defs63" />































































<g
   id="g1"
   transform="matrix(0.21052632,0,0,0.21052632,20.842102,-0.21052924)"
   style="display:inline;stroke-width:4.75"><path
     style="display:inline;fill:#ffffff;fill-opacity:1;stroke-width:4.75004"
     d="m 1801.8687,1464.932 c 0.327,-247.8992 0.6547,-495.79831 0.9789,-743.69753 0.015,-11.91844 0.1189,-23.83826 -0.025,-35.75498 -0.2256,-18.70324 -0.6703,-37.40384 -0.9341,-56.10679 -0.1174,-8.30939 -0.019,-16.62184 -0.019,-24.9329 0,-185.04265 -0.025,-370.08531 0.054,-555.127921 0.01,-12.738746 -2.4983,-24.259182 -11.813,-33.667399 -8.5893,-8.6755713 -18.2741,-14.6300981 -30.9663,-14.6296501 -604.4943,0.021414 -1208.98887,0.017181 -1813.483313,0.059188 -3.174296,2.21e-4 -6.395555,0.372659 -9.515109,0.9806306 -18.462097,3.5981083 -35.199259,23.1751065 -35.196852,43.2848355 0.07191,601.061666 0.07355,1202.123316 -0.03355,1803.184916 -0.0026,14.2132 2.950113,27.1333 12.068074,38.1922 7.411695,8.9888 17.05463,15.0381 28.722956,15.041 606.782914,0.1555 1213.565894,0.138 1820.348794,0.1 1.6991,-10e-5 3.4046,-0.5391 5.0959,-0.8815 10.0734,-2.0404 17.4977,-8.0101 24.2832,-15.4448 6.7959,-7.4464 10.3764,-15.9773 10.3822,-25.8303 0.077,-131.2625 0.052,-262.5252 0.052,-394.7686 z"
     id="path7" /><g
     id="g70"
     style="display:inline;stroke-width:5.12003"
     transform="matrix(0.92773437,0,0,0.92773437,-99.927727,0.07226563)"><path
       fill="#000000"
       opacity="1"
       stroke="none"
       d="m 291,1205 c 0,20.4905 -0.51422,40.5005 0.24707,60.4619 0.31494,8.2577 -3.24985,12.6749 -9.38498,16.5755 -15.20621,9.6674 -30.37349,19.3972 -45.48476,29.2124 -12.82751,8.3317 -25.54547,16.832 -38.33067,25.2292 -5.81482,3.8191 -11.39883,3.5079 -17.60663,-0.5254 -19.56588,-12.7123 -39.2129,-25.2997 -58.7751,-38.0177 -9.18427,-5.9711 -18.35786,-11.9717 -27.313482,-18.2754 -4.10218,-2.8873 -6.548508,-6.6377 -6.499817,-12.4278 0.296997,-35.314 0.157425,-70.6317 0.139939,-105.9482 -0.0031,-6.2987 2.291465,-11.1307 7.783767,-14.6792 27.858953,-17.9989 55.606563,-36.1701 83.427423,-54.2282 2.55159,-1.6563 5.23833,-3.225 8.06846,-4.2831 1.53284,-0.5731 3.89737,-0.6234 5.21161,0.1863 11.51172,7.0921 22.89913,14.3882 34.26862,21.709 15.9698,10.2827 31.89857,20.6292 47.83046,30.9708 2.96649,1.9255 5.84747,3.9824 8.7984,5.9326 6.58438,4.3516 7.45416,11.197 7.56097,18.1266 C 291.14404,1178.1768 291,1191.3395 291,1205 m -43.59355,-45.0378 c 0.0567,-1.2586 0.63681,-3.2748 0.0866,-3.6548 -4.09056,-2.8261 -8.45389,-5.2521 -12.64116,-7.9444 -15.02188,-9.6587 -30.00799,-19.3729 -45.23295,-29.2116 -20.00775,12.8756 -40.34569,25.9638 -60.99422,39.2519 18.83728,12.1122 37.19128,23.7134 55.28323,35.7099 3.77237,2.5013 6.69982,2.9881 10.22026,0.3104 1.15143,-0.8759 2.41327,-1.6067 3.62679,-2.4007 16.29967,-10.664 32.59972,-21.3276 49.65143,-32.0607 m -11.71518,118.0664 c 8.11931,-5.1972 16.12401,-10.589 24.42784,-15.4724 2.48846,-1.4635 2.93149,-2.9737 2.91855,-5.4517 -0.0764,-14.6525 -0.0377,-29.3058 -0.0377,-43.9587 0,-9.5566 0,-19.1132 0,-29.5348 -5.05643,3.4351 -9.35822,6.5045 -13.80324,9.3501 -14.21219,9.0981 -28.56189,17.986 -42.6219,27.312 -1.88759,1.2519 -3.3965,4.5412 -3.42279,6.9055 -0.25362,22.8092 -0.15206,45.6223 -0.15204,68.4343 0,1.0705 0,2.141 0,4.2698 5.53648,-3.6851 10.18832,-6.7662 14.82431,-9.871 5.75133,-3.852 11.48955,-7.7235 17.86693,-11.9831 M 129.0126,1192.5183 c -4.17633,-2.5412 -8.35266,-5.0826 -13.0122,-7.918 0,24.8371 -0.0554,48.9545 0.13682,73.07 0.0116,1.4571 1.71098,3.3048 3.10723,4.2807 8.45455,5.9092 17.01084,11.6758 25.60752,17.378 9.8604,6.5406 19.79819,12.9646 29.82918,19.5222 0.11601,-0.5244 0.29936,-0.9672 0.29967,-1.4099 0.0162,-23.1392 0.05,-46.2786 -0.0131,-69.4175 -0.0107,-3.9141 -1.43225,-7.1049 -5.2397,-9.1145 -3.26273,-1.7222 -6.22805,-4.0051 -9.33741,-6.0208 -10.2518,-6.6455 -20.50933,-13.2821 -31.37799,-20.3702 z"
       id="path11"
       style="stroke-width:5.12003" /><path
       fill="#000000"
       opacity="1"
       stroke="none"
       d="m 105,878.0033 c -0.33333,-11.75037 -0.5599,-23.00635 -1.05979,-34.25013 -0.16757,-3.76898 1.16872,-4.828 4.8604,-4.82135 54.82502,0.0988 109.65029,0.0682 164.83742,0.0682 0,56.79285 0,113.51855 0,170.49998 -55.89448,0 -111.98204,0 -168.63803,0 0,-43.48008 0,-87.23881 0,-131.49668 M 187.5,868 c -18.08218,0 -36.16437,0 -54.07439,0 0,37.56567 0,74.59619 0,111.65344 37.15468,0 74.3153,0 111.26763,0 0,-37.39007 0,-74.4331 0,-111.65344 -18.9352,0 -37.56423,0 -57.19324,0 z"
       id="path12"
       style="stroke-width:5.12003" /><path
       fill="#000000"
       opacity="1"
       stroke="none"
       d="m 275.00085,694.90967 c -2.9689,11.83374 -7.14111,22.66626 -13.78921,32.53338 -13.15787,19.529 -31.52242,32.14038 -54.23076,36.1847 -26.38908,4.69983 -51.31526,-0.027 -72.52574,-18.49231 -14.44576,-12.57611 -25.39726,-27.06818 -29.84188,-45.95679 -4.52606,-19.23462 -3.26341,-37.97308 4.34803,-56.33612 6.418,-15.48377 16.50229,-28.22296 29.87861,-37.82703 11.2515,-8.07843 24.11342,-13.12146 38.17038,-15.14081 18.54346,-2.66394 35.93087,0.23908 52.3386,8.9563 22.25526,11.8241 37.42749,29.66669 43.51953,54.30286 2.32251,9.39209 3.16031,19.20917 3.96454,28.89154 0.3381,4.07105 -1.16388,8.2948 -1.8321,12.88428 m -139.61345,5.00098 c 4.3267,9.67437 10.47997,17.77905 19.09731,24.19641 14.59401,10.86834 30.82031,14.48321 48.25696,10.39868 13.33563,-3.12397 24.57423,-10.20752 32.99679,-21.60511 10.31298,-13.95587 14.44913,-29.294 11.01537,-46.19659 -2.7543,-13.55804 -9.3232,-25.2251 -19.97238,-34.4953 -14.82463,-12.90491 -31.81519,-17.06921 -50.74397,-12.66943 -13.70209,3.18481 -24.6249,11.12213 -33.17835,22.17444 -7.62465,9.85217 -12.03984,21.17401 -11.65384,33.61364 0.2478,7.98609 2.47917,15.91065 4.18211,24.58326 z"
       id="path13"
       style="stroke-width:5.12003" /><path
       fill="#000000"
       opacity="1"
       stroke="none"
       d="m 191.24876,407.25134 c 20.96541,-20.96875 41.68106,-41.68719 62.27675,-62.28567 6.66462,6.82815 13.14334,13.46588 19.85123,20.33835 -48.94045,49.87377 -98.55693,100.43649 -147.91277,150.73358 -6.43006,-6.4332 -13.3157,-13.32221 -20.13948,-20.14936 28.4196,-29.31924 57.04706,-58.85293 85.92427,-88.6369 z"
       id="path18"
       style="stroke-width:5.12003" /></g><g
     id="g71"
     style="display:inline;stroke-width:5.12003"
     transform="matrix(0.92773437,0,0,0.92773437,-99.927727,0.07226563)"><path
       fill="#000000"
       opacity="1"
       stroke="none"
       d="m 634,1941 c -32.53241,0 -64.56488,0 -96.79004,0 0,-14.0564 0,-26.8031 0,-39.7753 80.51129,0 160.88879,0 241.52826,0 0,13.1097 0,26.1774 0,39.7753 -48.08038,0 -96.1593,0 -144.73822,0 z"
       id="path14"
       style="stroke-width:5.12003" /><path
       fill="#000000"
       opacity="1"
       stroke="none"
       d="m 835,1925.9961 c 0,-27.8052 0,-55.1108 0,-82.7061 32.27832,0 64.34534,0 96.75031,0 0.0783,1.1596 0.23815,2.4281 0.23876,3.6966 0.014,29.4933 -0.0769,58.9869 0.10621,88.4791 0.0272,4.3917 -1.1933,5.6576 -5.61194,5.6309 C 896.18048,1940.9125 865.87592,1941 835,1941 c 0,-4.9702 0,-9.7373 0,-15.0039 z"
       id="path15"
       style="stroke-width:5.12003" /><path
       fill="#000000"
       opacity="1"
       stroke="none"
       d="m 404,1851.1157 c 4.6e-4,-8.1156 4.6e-4,-8.1157 7.41971,-8.1157 67.15872,-10e-5 134.31747,0 201.47616,0 1.82056,0 3.64106,0 5.78254,0 0,12.8816 0,25.621 0,38.6812 -71.23236,0 -142.63187,0 -214.67841,0 0,-9.903 0,-19.9916 0,-30.5655 z"
       id="path16"
       style="stroke-width:5.12003" /><path
       fill="#000000"
       opacity="1"
       stroke="none"
       d="m 437,1901 c 26.46924,0 52.43845,0 78.98749,0 0,12.6151 0.10217,25.0415 -0.21521,37.4572 -0.0227,0.8876 -3.11096,2.4167 -4.78537,2.4327 -18.49036,0.1755 -36.98303,0.1101 -55.47507,0.1101 -15.49335,0 -30.98831,-0.1226 -46.47888,0.084 -3.966,0.053 -5.20349,-1.1116 -5.11884,-5.1027 C 404.1575,1924.5146 404,1913.0391 404,1901 c 10.97717,0 21.73859,0 33,0 z"
       id="path21"
       style="stroke-width:5.12003" /><path
       fill="#000000"
       opacity="1"
       stroke="none"
       d="m 668,1875.9116 c 0,-11.1246 0,-21.7608 0,-32.6532 37.01178,0 73.74805,0 110.74243,0 0,12.755 0,25.4931 0,38.4872 -36.76239,0 -73.49853,0 -110.74243,0 0,-1.7972 0,-3.5713 0,-5.834 z"
       id="path22"
       style="stroke-width:5.12003" /></g><g
     id="g68"
     style="display:inline;stroke-width:5.12003"
     transform="matrix(0.92773437,0,0,0.92773437,-99.927727,0.07226563)"><path
       fill="#000000"
       opacity="1"
       stroke="none"
       d="m 1404,1917.8784 c 0.2021,3.383 0.4043,6.2827 0.6924,10.4159 -4.4905,0.3054 -9.3441,0.6356 -14.4729,0.9845 0,-25.3461 0,-50.0654 0,-75.0321 5.833,0 11.5939,0 17.793,0 6.6309,16.3342 13.3446,32.872 20.0582,49.4097 0.239,-0.058 0.4781,-0.1158 0.7171,-0.1736 0,-16.4271 0,-32.8543 0,-49.3757 4.9971,0 9.2979,0 13.9112,0 0.1025,1.1367 0.2876,2.236 0.2884,3.3356 0.017,22.1408 -0.1117,44.2829 0.1175,66.4212 0.046,4.4287 -1.6925,4.765 -5.4842,5.3176 -9.5334,1.3892 -14.6797,-1.7305 -17.5252,-11.3479 -3.4821,-11.7684 -8.628,-23.0475 -13.1315,-34.5078 -0.8423,-2.1433 -2.0479,-4.1437 -2.964,-5.9679 0,13.4006 0,26.7189 0,40.5205 z"
       id="path28"
       style="display:inline;stroke-width:5.12003" /><path
       fill="#000000"
       opacity="1"
       stroke="none"
       d="m 1448.2959,1924.2799 c 7.6466,-23.4886 15.0378,-46.66 22.5721,-70.2799 4.9216,0 10.4023,0.1873 15.8611,-0.078 2.797,-0.1359 3.6154,1.1945 4.2885,3.4531 6.1283,20.5643 12.298,41.1166 18.5221,61.6521 0.8819,2.9098 2.1202,5.7114 3.6596,9.8013 -5.8581,0 -11.384,0.5238 -16.6865,-0.3335 -1.5029,-0.243 -2.794,-4.4068 -3.4277,-6.9595 -2.6088,-10.5094 -2.5021,-10.5359 -12.95,-10.5359 -11.7544,0 -11.7544,0 -14.1053,10.9393 -1.5173,7.0607 -1.5172,7.0607 -8.6474,7.0607 -1.997,0 -4.0172,-0.1932 -5.9864,0.041 -3.8473,0.4578 -4.4358,-1.3042 -3.1001,-4.7611 M 1475.8767,1898 c 3.6195,0 7.239,0 11.468,0 -2.6673,-10.1683 -5.2098,-19.8607 -7.7413,-29.511 -2.4263,9.8388 -4.8285,19.5808 -7.2772,29.511 1.008,0 1.8311,0 3.5505,0 z"
       id="path37"
       style="display:inline;stroke-width:5.12003" /><path
       fill="#000000"
       opacity="1"
       stroke="none"
       d="m 1521.1819,1928.9979 c -1.0481,-0.9358 -2.0908,-1.8592 -2.1116,-2.805 -0.4265,-19.5651 -0.8279,-39.1317 -1.0004,-58.7003 -0.038,-4.3661 0.8077,-8.74 1.1838,-12.487 12.7624,0 25.4729,-0.4449 38.1319,0.1696 7.3955,0.3591 14.8371,10.6338 15.6463,19.2481 1.6237,17.2871 -11.439,27.7831 -25.8533,27.5848 -3.8247,-0.053 -7.6506,-0.01 -12.1786,-0.01 0,7.1462 -0.3054,14.2421 0.1063,21.2959 0.2794,4.7869 -1.4061,6.3162 -5.9568,5.7578 -2.4605,-0.302 -4.9886,-0.054 -7.9676,-0.056 m 34.5032,-56.8485 c -1.4757,-1.6877 -2.8022,-4.6352 -4.4545,-4.8308 -5.2883,-0.6261 -10.6976,-0.2327 -15.9291,-0.2327 0,7.6084 0,14.6802 0,21.9136 3.2785,0 6.2655,0.1478 9.2333,-0.028 8.2095,-0.4869 11.3293,-3.369 11.9108,-11.0116 0.1264,-1.6621 -0.2975,-3.3661 -0.7605,-5.8102 z"
       id="path38"
       style="display:inline;stroke-width:5.12003" /><path
       fill="#000000"
       opacity="1"
       stroke="none"
       d="m 1373.7214,1858.2301 c 2.2989,1.7615 4.3244,3.2609 6.3499,4.7601 -0.3681,0.3715 -0.736,0.743 -1.104,1.1144 -0.1558,0.2765 -0.2727,0.5858 -0.4733,0.8248 -5.443,6.4795 -10.7997,7.3255 -17.9629,1.6624 -2.5644,-2.0273 -8.2622,-1.193 -12.0871,-0.1066 -2.257,0.6411 -4.716,4.1496 -5.1626,6.7043 -0.5972,3.4168 1.6344,6.471 5.3573,7.6958 6.2286,2.049 12.5691,3.8082 18.6692,6.1854 6.2448,2.4335 12.2389,9.2489 12.9759,17.7889 1.3085,15.1609 -9.7425,24.0928 -22.23,24.0835 -6.5584,0 -13.3182,0.2587 -19.6169,-1.1985 -6.0812,-1.4071 -11.547,-5.0229 -13.6603,-11.7165 3.4324,-2.6933 6.6051,-5.1829 9.8671,-7.7425 5.8642,8.4144 14.7141,8.6857 23.4811,7.3082 2.281,-0.3584 5.0393,-4.4886 5.6192,-7.2917 0.9013,-4.3565 -2.9658,-7.9892 -7.4137,-9.3598 -6.8344,-2.1062 -14.2804,-3.455 -20.1523,-7.1912 -10.694,-6.8041 -14.2344,-23.5697 -0.6586,-33.3706 12.0515,-8.7006 25.1951,-8.1484 38.202,-0.1504 z"
       id="path40"
       style="display:inline;stroke-width:5.12003" /></g><g
     id="g66"
     style="display:inline;stroke-width:5.12003"
     transform="matrix(0.92773437,0,0,0.92773437,-99.927727,0.07226563)"><path
       fill="#000000"
       opacity="1"
       stroke="none"
       d="m 1821,196.03818 c 0.1707,2.63054 0.1033,4.05945 -2.9971,4.0446 -29.1184,-0.13968 -58.2378,-0.083 -87.6797,-0.083 0,-30.52319 0,-60.90338 0,-91.64195 29.5828,0 59.4139,0 90.6768,0 0,29.0735 0,58.14564 0,87.6803 M 1764.5361,131 c -1.9986,0 -4.0245,0.21155 -5.9902,-0.0431 -4.39,-0.56868 -5.7994,1.10573 -5.6444,5.55152 0.3247,9.31564 0.099,18.65048 0.099,27.97745 0,11.51409 0,11.51411 11.5229,11.51411 11.0905,1e-5 22.181,0 33.1944,0 0,-15.31184 0,-30.04405 0,-45 -10.9175,0 -21.5537,0 -33.1812,0 z"
       id="path17"
       style="stroke-width:5.12003" /><path
       fill="#000000"
       opacity="1"
       stroke="none"
       d="m 1864.6201,109.78155 c 0.828,-0.96205 1.3497,-1.73464 1.9773,-2.66384 9.5704,9.67266 19.1633,19.36803 28.7119,29.01844 10.112,-9.47472 19.9665,-18.70822 29.319,-27.47136 5.7466,5.20049 11.6587,10.55081 17.5824,15.91165 -9.757,9.70408 -19.2672,19.16288 -29.4659,29.30622 10.2946,9.71231 19.9721,18.84233 29.7242,28.04274 -6.1289,6.71303 -11.7394,12.85826 -16.6764,18.26584 -10.1033,-9.11449 -20.2649,-18.2816 -30.8267,-27.80983 -8.6396,9.07521 -17.9748,18.8811 -26.9846,28.34515 -6.0642,-5.97252 -11.9787,-11.79774 -17.9778,-17.70614 9.4634,-9.39722 18.9827,-18.84992 28.0075,-27.81156 -10.2023,-10.20347 -19.8663,-19.86874 -28.6267,-28.63013 5.3551,-5.95697 10.1423,-11.28235 15.2358,-16.79718 z"
       id="path19"
       style="stroke-width:5.12003" /><path
       fill="#000000"
       opacity="1"
       stroke="none"
       d="m 1665,176 c 12.1394,0 23.7789,0 35.7085,0 0,7.93895 0,15.67633 0,23.7084 -29.9843,0 -60.0522,0 -90.3575,0 0,-6.77847 0.114,-13.6741 -0.049,-20.56323 -0.08,-3.38304 1.8827,-3.18121 4.2254,-3.17369 16.6573,0.0535 33.3147,0.0285 50.4722,0.0285 z"
       id="path41"
       style="stroke-width:5.12003" /></g><g
     id="g67"
     style="display:inline;stroke-width:5.12003"
     transform="matrix(0.92773437,0,0,0.92773437,-99.927727,0.07226563)"><path
       fill="#000000"
       opacity="1"
       stroke="none"
       d="m 1138.8274,1929 c -5.5243,1.0549 -8.0881,-1.6451 -9.8626,-5.988 -2.5427,-6.2234 -5.7152,-12.2133 -7.8991,-18.5508 -1.369,-3.973 -3.5441,-5.0022 -7.2426,-4.485 -1.1063,0.1548 -2.2527,0.024 -3.8231,0.024 0,8.2518 -0.1866,16.2045 0.081,24.142 0.1284,3.8122 -1.603,4.7468 -4.8865,4.8879 -11.1964,0.481 -11.1943,0.5298 -11.1943,-10.4875 0,-21.2998 0,-42.5998 0,-63.5193 12.4617,0 25.0524,-1.6621 37.0042,0.3929 17.5748,3.0217 19.5257,22.4435 12.5059,34.4663 -1.2367,2.1181 -3.2066,4.3926 -5.3731,5.2635 -4.7997,1.9295 -4.0146,4.0186 -1.8898,7.7313 4.6254,8.0823 8.6366,16.5156 13.0317,25.0639 -3.0608,0.3238 -6.5356,0.6914 -10.4515,1.059 m -9.1085,-46.1875 c 4.3136,-14.4377 -2.99,-17.4767 -19.3584,-15.3685 0,6.5055 0,13.0031 0,19.556 3.175,0 5.9978,-0.1323 8.803,0.032 3.8985,0.2284 7.6157,0.2215 10.5554,-4.2197 z"
       id="path29"
       style="stroke-width:5.12003" /><path
       fill="#000000"
       opacity="1"
       stroke="none"
       d="m 1263.746,1862.2488 c 5.4803,4.4824 7.3174,10.4407 8.7278,16.6564 2.0935,9.2266 2.2072,18.3951 -0.4722,27.5322 -3.714,12.6654 -11.8344,20.8979 -25.059,22.352 -8.9666,0.986 -18.1295,0.1881 -27.2983,0.1881 0,-25.2855 0,-49.7895 0,-75.1052 11.8442,1.1444 23.4243,-2.1572 34.5497,2.2238 3.3532,1.3204 6.2115,3.8972 9.552,6.1527 m -22.9491,52.7853 c 9.3747,-0.1293 12.4626,-3.0922 15.3775,-12.1922 2.3438,-7.3165 1.9661,-14.4592 0.7576,-21.6924 -1.485,-8.8883 -7.6307,-13.8592 -16.84,-14.1629 -1.3637,-0.045 -2.7216,-0.2668 -4.2912,-0.4282 -0.2465,0.5158 -0.75,1.0799 -0.7518,1.6455 -0.048,14.8237 -0.064,29.6474 -0.034,44.4713 0.01,3.7813 2.2231,3.8764 5.7821,2.3589 z"
       id="path32"
       style="stroke-width:5.12003" /><path
       fill="#000000"
       opacity="1"
       stroke="none"
       d="m 1069.0027,1888 c 4.8052,0 9.113,0 13.7082,0 0,13.6064 0,27.0032 0,40.7009 -3.6378,0 -7.3818,0 -11.2563,0 -0.4149,-1.7459 -0.8632,-3.6323 -1.431,-6.0223 -8.9788,12.9534 -29.1972,6.8502 -34.9981,-2.7084 -6.5799,-10.8423 -9.1101,-22.3799 -7.2427,-35.218 1.2926,-8.8861 3.3496,-16.9318 9.5891,-23.6791 10.5861,-11.447 36.8064,-12.7409 45.4374,6.3712 -3.6051,2.6278 -7.2121,5.253 -10.833,7.8882 -6.3733,-9.6855 -14.0837,-12.7508 -20.9669,-7.0085 -3.6271,3.026 -6.3243,8.9608 -6.6392,13.7657 -0.5485,8.3706 0.2126,17.0733 2.028,25.2821 1.7467,7.8988 8.8817,10.7912 16.1555,8.6991 4.6071,-1.3249 5.739,-4.7772 6.3899,-8.6598 0.3236,-1.9304 0.056,-3.9598 0.056,-6.0907 -2.1546,-0.1141 -4.0914,-0.261 -6.0304,-0.3077 -2.1432,-0.052 -4.2886,-0.012 -6.7006,-0.012 0,-4.2711 0,-8.352 0,-13.001 4.0344,0 8.1355,0 12.7339,0 z"
       id="path35"
       style="stroke-width:5.12003" /><path
       fill="#000000"
       opacity="1"
       stroke="none"
       d="m 1194.7837,1866.9781 c -1.7648,0.019 -3.0646,0.019 -4.7828,0.019 0,15.4031 -0.079,30.5211 0.1588,45.634 0.018,1.1411 2.2133,3.0845 3.5374,3.2138 4.2535,0.4155 8.573,0.1546 13.0805,0.1546 0,4.4135 0,8.4836 0,12.9994 -15.2252,0 -30.3323,0.069 -45.4356,-0.1382 -1.1274,-0.015 -3.0056,-1.8824 -3.1881,-3.0918 -0.4605,-3.0546 -0.1527,-6.2251 -0.1527,-9.7392 5.422,0 10.5054,0 15.7855,0 0,-16.4663 0,-32.5374 0,-48.6505 -5.1906,-0.4993 -10.2562,-0.9864 -15.0622,-1.4486 -0.2481,-2.4468 -0.4286,-4.7498 -0.726,-7.0374 -0.4622,-3.557 0.7231,-5.0349 4.6144,-4.973 13.1553,0.2092 26.3161,0.088 39.4746,0.068 1.4606,0 2.9209,-0.1698 4.6354,-0.2763 0,3.664 0,7.6908 0,11.762 -3.7854,0.49 -7.6299,0.9876 -11.9392,1.5042 z"
       id="path43"
       style="stroke-width:5.12003" /></g><g
     id="g64"
     style="display:inline;stroke-width:5.12003"
     transform="matrix(0.92773437,0,0,0.92773437,-99.927727,0.07226563)"><path
       fill="#000000"
       opacity="1"
       stroke="none"
       d="m 525.02258,134.97777 c 1.33271,6.01326 3.42951,11.57321 3.78546,17.24246 0.6543,10.42358 0.19178,20.83604 -3.33856,30.96411 -3.65387,10.48253 -11.51465,16.02617 -21.62619,17.55097 -8.78796,1.32522 -17.75049,0.74908 -25.7547,-4.95525 -7.47592,-5.32787 -10.83832,-12.70419 -11.95092,-21.1485 -0.98661,-7.48785 -1.30832,-15.14969 -1.00971,-22.69858 0.37131,-9.38542 1.79953,-18.8542 8.61496,-26.05459 8.80749,-9.30493 19.85089,-11.37668 32.07907,-8.52893 9.57919,2.23083 16.1005,7.79238 19.20059,17.62831 m -39.0021,2.80855 c -0.67359,1.90979 -1.82013,3.79063 -1.93918,5.73439 -0.52261,8.53224 -1.06839,17.08801 -0.9271,25.62402 0.0583,3.52222 1.27149,7.30835 2.93812,10.4563 2.66977,5.04262 7.74255,6.19713 12.96023,5.3015 4.42117,-0.75891 8.55045,-2.24933 10.00946,-7.56302 3.33698,-12.15308 1.63693,-24.37023 0.68549,-36.54981 -0.14817,-1.89642 -2.23511,-4.01141 -3.95249,-5.34828 -6.01291,-4.68059 -13.77054,-3.89004 -19.77453,2.3449 z"
       id="path23"
       style="stroke-width:5.12003" /><path
       fill="#000000"
       opacity="1"
       stroke="none"
       d="m 540.9729,178.00931 c -3.16284,-10.73954 -2.43976,-21.32946 -1.4306,-31.74329 0.53924,-5.56476 2.5423,-11.31712 5.20062,-16.27995 5.92578,-11.06298 25.04938,-17.40347 38.90057,-11.27857 13.08179,5.78463 17.47815,15.9271 18.26996,28.70713 0.47229,7.62402 0.003,15.3023 0.10541,22.95424 0.16571,12.43403 -8.2193,27.54617 -23.16412,30.14296 -17.03321,2.95967 -33.14063,-2.4775 -37.88184,-22.50252 m 44.02716,-26.35709 c -0.47516,-3.85071 0.13056,-8.33472 -1.67053,-11.40855 -2.94141,-5.02011 -7.68488,-8.55538 -14.39215,-7.26099 -5.69,1.0981 -10.43909,4.11716 -10.7547,9.89781 -0.61231,11.21504 -0.71814,22.55648 0.30688,33.72246 0.55084,6.0002 8.17524,9.38092 14.96753,8.38913 5.30622,-0.7748 10.17517,-6.08173 10.5213,-11.70624 0.42377,-6.88406 0.68824,-13.77795 1.02167,-21.63362 z"
       id="path24"
       style="stroke-width:5.12003" /><path
       fill="#000000"
       opacity="1"
       stroke="none"
       d="m 680.16687,146.41998 c -1.12628,-12.94624 3.45941,-22.35355 15.32013,-27.47689 7.52331,-3.24971 15.39612,-3.82309 23.24969,-1.53471 5.18482,1.51079 10.21229,3.60118 15.23005,5.63045 2.91143,1.17743 4.03424,3.26094 2.0144,6.21176 -0.36475,0.53281 -0.68176,1.10361 -0.97125,1.68169 -3.96302,7.91278 -3.87696,7.6918 -12.12866,4.57547 -5.94544,-2.24535 -11.92456,-5.00197 -18.67292,-2.62607 -4.11541,1.44893 -6.99371,4.10971 -7.04803,8.31034 -0.0524,4.04919 3.35992,5.82545 6.98089,6.84857 7.69092,2.17305 15.44373,4.16522 23.03009,6.66034 8.78968,2.89084 12.01502,10.10084 12.78303,18.55369 1.68774,18.57468 -12.29554,27.69974 -27.00525,27.80236 -10.85108,0.0757 -21.55256,0.0152 -30.70807,-7.04055 -1.80603,-1.39183 -3.54938,-2.86511 -5.64862,-4.56581 3.08758,-4.37837 6.00695,-8.51809 9.21014,-13.06035 7.81909,8.46787 17.62762,9.36362 27.75195,8.47219 2.52387,-0.22222 5.33423,-1.65808 7.25122,-3.38274 4.09491,-3.68396 3.01001,-9.70573 -2.21154,-11.39207 -6.6778,-2.15667 -13.69642,-3.23302 -20.46003,-5.15528 -9.26519,-2.63318 -15.78912,-8.21441 -17.96722,-18.51239 z"
       id="path27"
       style="stroke-width:5.12003" /><path
       fill="#000000"
       opacity="1"
       stroke="none"
       d="m 439,185.99368 c 0,4.80742 0,9.11643 0,13.71443 -5.60504,0 -11.00745,0 -16.79175,0 0,-21.96731 0,-44.0267 0,-66.4781 -7.76602,0 -15.17419,0 -22.89285,0 0,-5.45309 0,-10.52113 0,-14.85041 10.35486,-0.45619 20.76611,-1.08707 31.18631,-1.32453 10.01855,-0.22829 20.04639,-0.0494 30.29303,-0.0494 0,5.90984 0,10.68143 0,15.84953 -7.10913,0 -14.18286,0 -21.79474,0 0,17.80503 0,35.22254 0,53.13843 z"
       id="path42"
       style="stroke-width:5.12003" /><path
       fill="#000000"
       opacity="1"
       stroke="none"
       d="m 632,141.00001 c 0,14.47625 0,28.4525 0,42.99999 11.47601,0 22.74805,0.24527 34.00092,-0.11369 4.90002,-0.15633 6.60376,1.37188 6.06445,6.17616 -0.34802,3.10011 -0.0654,6.271 -0.0654,9.67244 -19.00537,0 -37.75317,0 -56.19531,0 0,-27.39998 0,-54.77663 0,-82.44321 5.47046,0 10.54284,0 16.19531,0 0,7.67649 0,15.44242 0,23.70831 z"
       id="path45"
       style="stroke-width:5.12003" /></g><g
     id="g69"
     style="display:inline;stroke-width:5.12003"
     transform="matrix(0.92773437,0,0,0.92773437,-99.927727,0.07226563)"><path
       fill="#000000"
       opacity="1"
       stroke="none"
       d="m 1712.9695,1854 c 7.6894,-0.1741 14.7734,0.011 21.0096,4.438 11.9207,8.4613 13.1194,29.5751 -1.7817,38.5499 -0.7965,0.4799 -1.5359,1.0547 -2.2489,1.5486 5.2569,9.9388 10.3917,19.6465 16.108,30.4536 -5.8198,0 -11.2225,0.2627 -16.5641,-0.1919 -1.2743,-0.1084 -2.6585,-2.454 -3.4537,-4.0405 -3.2344,-6.4525 -6.7655,-12.8292 -9.1812,-19.5931 -1.5761,-4.4139 -3.7481,-5.8953 -8.0518,-5.1918 -1.1065,0.1808 -2.2676,0.027 -2.8057,0.027 0,8.0859 -0.2657,15.8453 0.1006,23.575 0.2164,4.5668 -1.4509,5.8903 -5.7225,5.4864 -3.2674,-0.3091 -6.5876,-0.061 -10.1293,-0.061 0,-25.0034 0,-49.7157 0,-75 7.3817,0 14.8039,0 22.7207,0 m 14.0294,19.932 c -0.6544,-3.998 -2.9834,-6.5881 -6.9916,-6.854 -4.8755,-0.3235 -9.7889,-0.077 -14.134,-0.077 0,6.8601 0,13.2519 0,19.9988 3.3158,0 6.1041,-0.1428 8.8733,0.026 8.6783,0.5306 13.4657,-4.4032 12.2523,-13.0945 z"
       id="path30"
       style="stroke-width:5.12003" /><path
       fill="#000000"
       opacity="1"
       stroke="none"
       d="m 1816,1888 c 0,-11.4695 0,-22.439 0,-33.7037 5.2626,0 10.332,0 15.7963,0 0,9.291 0,18.6964 0,28.4005 7.1147,0 13.8513,0 20.9826,0 0,-9.2671 0,-18.6721 0,-28.3848 5.4516,0 10.5215,0 15.9084,0 0,24.5757 0,49.3019 0,74.2979 -4.8841,0 -9.9488,0 -15.5088,0 0,-10.5782 0,-21.4572 0,-32.0429 -6.2816,0 -12.1145,0.4459 -17.8361,-0.16 -3.6853,-0.3902 -3.3393,1.4098 -3.3404,3.6142 0,9.4687 0,18.9372 0,28.9771 -4.4623,0 -8.7267,-0.016 -12.9908,0.01 -3.3449,0.017 -3.0118,-2.3526 -3.011,-4.5395 0,-11.988 0,-23.976 0,-36.464 z"
       id="path31"
       style="stroke-width:5.12003" /><path
       fill="#000000"
       opacity="1"
       stroke="none"
       d="m 1671.8184,1862.3228 c 11.0966,19.7424 11.9751,39.3085 0.01,58.5355 -1.9431,3.122 -5.8829,5.8874 -9.4576,6.9626 -21.0537,6.3317 -35.6757,-2.0785 -40.292,-24.1563 -2.1014,-10.0503 -1.5123,-20.2037 1.1308,-30.118 5.869,-22.0145 35.2916,-27.8642 48.6101,-11.2238 m -28.2382,51.7268 c 9.1743,5.2285 16.0779,2.5822 18.4254,-7.4104 2.5235,-10.7406 3.0156,-21.5673 0,-32.3581 -1.2676,-4.5417 -4.0804,-7.7444 -8.7725,-8.1909 -7.7566,-0.7385 -12.041,1.2881 -13.0414,7.2256 -1.4055,8.3411 -2.2302,16.9279 -1.9088,25.3564 0.1906,5.0028 3.061,9.9037 5.2931,15.3774 z"
       id="path33"
       style="stroke-width:5.12003" /><path
       fill="#000000"
       opacity="1"
       stroke="none"
       d="m 1809,1859.9379 c -0.01,7.0604 -0.01,7.0609 -6.4536,7.0619 -5.3154,8e-4 -10.6308,2e-4 -16.0086,2e-4 0,5.8088 0.053,11.4169 -0.011,17.0236 -0.1311,11.5565 -0.3514,23.112 -0.4743,34.6687 -0.034,3.1622 1.3034,8.3171 -0.01,9.0791 -2.7898,1.62 -6.9228,0.8192 -10.4735,1.2636 -4.355,0.5451 -5.7297,-1.0464 -5.6719,-5.5184 0.241,-18.6376 0.1016,-37.2803 0.1016,-56.3198 -6.9244,0 -13.668,0 -20.7034,0 0,-4.4591 0,-8.5318 0,-12.9033 19.6352,0 39.3703,0 59.7034,0 0,1.6571 0,3.4163 0,5.6444 z"
       id="path46"
       style="stroke-width:5.12003" /><path
       fill="#000000"
       opacity="1"
       stroke="none"
       d="m 1928.3541,1861.9963 c 11.0966,19.7424 11.9751,39.3085 0.01,58.5355 -1.9431,3.122 -5.8829,5.8874 -9.4576,6.9626 -21.0537,6.3317 -35.6757,-2.0785 -40.292,-24.1563 -2.1014,-10.0503 -1.5123,-20.2037 1.1308,-30.118 5.869,-22.0145 35.2916,-27.8642 48.6101,-11.2238 m -28.2382,51.7268 c 9.1743,5.2285 16.0779,2.5822 18.4254,-7.4104 2.5235,-10.7406 3.0156,-21.5673 0,-32.3581 -1.2676,-4.5417 -4.0804,-7.7444 -8.7725,-8.1909 -7.7566,-0.7385 -12.041,1.2881 -13.0414,7.2256 -1.4055,8.3411 -2.2302,16.9279 -1.9088,25.3564 0.1906,5.0028 3.061,9.9037 5.2931,15.3774 z"
       id="path72"
       style="stroke-width:5.12003" /></g><g
     id="g65"
     style="display:inline;stroke-width:5.12003"
     transform="matrix(0.92773437,0,0,0.92773437,-99.927727,0.07226563)"><path
       fill="#000000"
       opacity="1"
       stroke="none"
       d="m 1020.7374,176.63248 c -1.7419,7.10563 -3.11,13.89143 -4.9106,20.56047 -0.3198,1.18454 -2.3852,2.57773 -3.7349,2.67976 -4.4605,0.3372 -8.9624,0.12718 -13.65239,0.12718 -6.62414,-27.19526 -13.22082,-54.27755 -19.94854,-81.89792 4.3352,-0.41058 7.98895,-0.72036 11.63385,-1.1122 3.50885,-0.37722 5.49322,0.17307 6.26916,4.56981 2.49073,14.11278 5.69632,28.09903 8.59552,42.14043 0.5243,2.53925 0.9038,5.10837 1.6148,9.17844 2.0263,-7.38761 3.7498,-13.51686 5.3858,-19.66937 2.8464,-10.70496 5.694,-21.4103 8.418,-32.14673 0.7479,-2.94798 2.0317,-4.21396 5.3597,-4.1597 9.2869,0.15144 9.4563,-0.0805 12.2246,9.27119 4.3698,14.76134 8.4903,29.59645 13.0204,45.46591 1.1032,-5.16976 2.0159,-9.58975 2.9927,-13.99548 2.6448,-11.9303 5.4103,-23.83494 7.9231,-35.79278 0.785,-3.7354 2.51,-5.28157 6.3956,-4.91872 3.437,0.32095 6.9276,0.0672 11.2914,0.0672 -6.8778,28.12241 -13.6172,55.67906 -20.2989,82.99992 -4.455,0 -8.8371,-0.22322 -13.1828,0.0778 -2.9383,0.20355 -3.5748,-1.42002 -4.138,-3.61185 -4.153,-16.16096 -8.3312,-32.31552 -12.5308,-48.46443 -0.066,-0.25371 -0.5036,-0.4108 -1.2205,-0.95949 -2.4627,9.88722 -4.8717,19.55905 -7.5072,29.59052 z"
       id="path20"
       style="stroke-width:5.12003" /><path
       fill="#000000"
       opacity="1"
       stroke="none"
       d="m 968,159.88519 c -0.006,6.72789 -0.47571,7.1688 -6.01965,7.13205 -9.46112,-0.0627 -18.92292,-0.0173 -28.68274,-0.0173 0,5.48386 0,10.9052 0,17.00005 7.55365,0 15.30145,0 23.04925,0 4.32935,0 8.67353,0.22249 12.98352,-0.0661 3.86841,-0.25907 5.09003,1.33479 4.69257,4.93797 -0.38049,3.44869 -0.5719,6.9182 -0.8761,10.75383 -18.48981,0 -37.02454,0 -55.854,0 0,-26.88453 0,-53.93845 0,-82.25959 7.19433,0 14.51275,0.046 21.83038,-0.0113 9.70776,-0.076 19.41943,-0.0982 29.12012,-0.42256 3.75,-0.12536 4.99975,1.13974 4.84125,4.85831 -0.15082,3.53909 0.39947,7.10805 0.67864,11.20951 -11.69268,0 -23.42956,0.17412 -35.15649,-0.0915 -4.28516,-0.0971 -6.11218,0.98373 -5.68396,5.53676 0.37122,3.946 0.0772,7.95457 0.0772,12.3245 11.56128,0 22.9646,0 35,0 0,3.12464 0,5.88273 0,9.11542 z"
       id="path26"
       style="stroke-width:5.12003" /><path
       fill="#000000"
       opacity="1"
       stroke="none"
       d="m 836.01941,157.91284 c 1.49951,4.97385 2.97949,9.52863 4.82391,15.20509 1.58576,-4.95048 2.89411,-8.89376 4.11261,-12.86459 4.04462,-13.17979 8.01471,-26.38269 12.11884,-39.54381 0.77051,-2.47083 2.21185,-4.11011 5.42181,-3.80043 3.94763,0.38087 7.95996,0.0909 13.48126,0.0909 -9.2984,27.99487 -18.38629,55.35596 -27.52612,82.87338 -4.84753,0 -9.82251,0 -14.87561,0 -9.0918,-27.06596 -18.17975,-54.12059 -27.43793,-81.68204 5.20588,-0.46609 9.28284,-0.65018 13.2981,-1.24817 3.17779,-0.47326 4.69586,1.20016 5.4502,3.71044 3.46057,11.51717 6.77911,23.07698 10.16961,34.61534 0.22565,0.76775 0.62512,1.48441 0.96332,2.64386 z"
       id="path36"
       style="stroke-width:5.12003" /><path
       fill="#000000"
       opacity="1"
       stroke="none"
       d="m 884.39209,118.40102 c 4.72729,-0.68455 9.11737,-1.21953 13.50836,-1.22663 1.03095,-0.002 2.55945,1.60722 2.97241,2.78582 0.51911,1.48169 0.12696,3.28279 0.12702,4.94606 1.2e-4,22.78683 -0.017,45.57369 0.029,68.36044 0.004,2.07855 0.41388,4.15628 0.66107,6.47723 -5.54864,0 -11.30249,0 -17.63476,0 0,-26.934 0,-53.96733 0.33691,-81.34292 z"
       id="path47"
       style="stroke-width:5.12003" /></g><g
     id="g63"
     style="display:inline;stroke-width:5.12003"
     transform="matrix(0.92773437,0,0,0.92773437,-99.927727,0.07226563)"><path
       fill="#000000"
       opacity="1"
       stroke="none"
       d="m 276,131.00944 c 0,-4.47405 0,-8.44966 0,-13.00944 7.45007,0 14.71042,0.12349 21.96497,-0.0297 10.23596,-0.21612 20.46823,-0.61903 30.70062,-0.98199 2.8071,-0.0996 4.48855,0.0678 3.93316,3.96251 -0.53713,3.76683 0.34577,7.73616 0.6319,12.02014 -13.6615,0 -26.7308,0 -40.01193,0 0,6.11691 0,11.85116 0,17.97571 11.19202,0 22.26157,0 33.5524,0 0,5.47323 0,10.56353 0,15.69146 -11.11334,0 -22.19766,0 -33.52692,0 0,6.04085 0,11.44831 0,17.36185 11.46744,0 22.90222,0.21211 34.32236,-0.10472 4.54889,-0.12621 5.90365,1.43567 5.49533,5.72128 -0.31143,3.26869 -0.0619,6.59081 -0.0619,10.13448 -19.01581,0 -37.74115,0 -57,0 0,-22.75304 0,-45.4981 0,-68.7416 z"
       id="path25"
       style="stroke-width:5.12003" /><path
       fill="#000000"
       opacity="1"
       stroke="none"
       d="M 129,137.12721 C 129,152 129,152 143.15544,152 c 5.7963,0 11.59261,0 17.6136,0 0,5.06531 0,9.80304 0,14.94165 -10.50372,0 -20.91348,0 -31.71365,0 0,11.13049 0,21.87308 0,32.83315 -6.13347,0 -11.87103,0 -18.05539,0 0,-3.72469 0,-7.34243 0,-10.96016 1e-5,-22.32781 0.0696,-44.65606 -0.0696,-66.983 -0.0228,-3.65531 0.98344,-5.05988 4.79096,-4.89351 11.05613,0.48311 22.12367,0.73433 33.18904,0.96518 5.98153,0.12478 11.96781,0.0222 17.93215,0.0222 0,5.35854 0,9.97992 0,15.07459 -11.59278,0 -23.03654,0.11512 -34.47511,-0.0769 -3.05153,-0.0512 -3.76723,1.10049 -3.36746,4.20402 z"
       id="path34"
       style="stroke-width:5.12003" /><path
       fill="#000000"
       opacity="1"
       stroke="none"
       d="m 214.09506,118.00001 c 2.97498,-3e-5 5.59039,0.48018 7.94409,-0.10047 4.83594,-1.19301 5.06974,1.09915 5.03792,4.97088 -0.16545,20.13753 -0.0771,40.27716 -0.0771,60.9769 12.91531,0 25.77136,0 38.79855,0 0,5.62868 0,10.696 0,15.95776 -18.59054,0 -36.97981,0 -55.79855,0 0,-7.27011 0,-14.37953 0,-21.48893 0,-18.81026 0.0555,-37.62087 -0.0596,-56.43042 -0.0173,-2.83436 0.3529,-4.56235 4.15462,-3.88572 z"
       id="path44"
       style="stroke-width:5.12003" /><path
       fill="#000000"
       opacity="1"
       stroke="none"
       d="m 177,131.00944 c 0,-4.4764 0,-8.45433 0,-12.71997 5.61287,0 11.018,0 16.71361,0 0,26.99575 0,54.06368 0,81.42156 -5.32595,0 -10.73114,0 -16.71361,0 0,-22.68573 0,-45.44443 0,-68.70159 z"
       id="path48"
       style="stroke-width:5.12003" /></g><g
     id="g6"
     style="display:inline;stroke-width:5.12003"
     transform="matrix(0.92773437,0,0,0.92773437,-99.927727,0.07226563)"><path
       fill="#000000"
       opacity="1"
       stroke="none"
       d="m 296,246 c 274.47302,0 548.44611,0 822.7095,0 0,258.61371 0,517.01514 0,775.7084 -270.65402,0 -541.38858,0 -812.51935,0 0,-236.31704 0,-472.71902 0,-709.52053 -65.7989,0 -131.20414,0 -196.89934,0 0,-22.13532 0,-43.87412 0,-66.18787 62.02119,0 124.1152,0 186.70919,0 z"
       id="path2"
       style="display:inline;stroke-width:5.12003" /><path
       fill="#000000"
       opacity="1"
       stroke="none"
       d="M 1146,893 V 246.22327 h 794.2679 V 1021.7218 H 1146 Z"
       id="path3"
       style="display:inline;stroke-width:5.12003" /><path
       fill="#000000"
       opacity="1"
       stroke="none"
       d="m 352,1920 v 20.7151 h -45.77448 c -0.072,-1.1946 -0.216,-2.4662 -0.21603,-3.7377 -0.01,-301.1567 -1.2e-4,-582.3136 -0.10031,-883.4703 -10e-4,-4.4304 1.26169,-5.5968 5.63544,-5.5952 267.82452,0.098 535.64904,0.088 803.47358,0.088 h 3.7037 V 1792.827 H 352 v 127.1729 z"
       id="path4"
       style="display:inline;stroke-width:5.12003" /><path
       fill="#000000"
       opacity="1"
       stroke="none"
       d="m 1941,1338 v 454.7109 h -794.7073 v -744.4828 c 1.3192,-0.072 2.7533,-0.2182 4.1875,-0.2183 268.3258,-0.01 516.6516,0.01 784.9774,-0.1242 5.0127,0 5.6237,1.8554 5.6195,6.1238 -0.099,101.1635 -0.077,182.327 -0.077,283.9906 z"
       id="path5"
       style="display:inline;stroke-width:5.12003" /></g></g></svg>
