<?xml version="1.0" encoding="UTF-8" standalone="no"?>
<!-- Created with Inkscape (http://www.inkscape.org/) -->

<svg
   version="1.1"
   id="svg1"
   width="256"
   height="256"
   viewBox="0 0 256 256"
   xml:space="preserve"
   xmlns:xlink="http://www.w3.org/1999/xlink"
   xmlns="http://www.w3.org/2000/svg"
   xmlns:svg="http://www.w3.org/2000/svg"><defs
     id="defs1"><linearGradient
       id="swatch2"><stop
         style="stop-color:#a09660;stop-opacity:1;"
         offset="0"
         id="stop2" /></linearGradient><linearGradient
       id="swatch25"
       gradientTransform="matrix(1.7710199,0,0,1.7933611,-266.77132,-245.09461)"><stop
         style="stop-color:#000000;stop-opacity:1;"
         offset="0"
         id="stop25" /></linearGradient><linearGradient
       id="swatch20"
       gradientTransform="matrix(0.0187161,0,0,0.01777778,19.432305,243.82593)"><stop
         style="stop-color:#fafa00;stop-opacity:1;"
         offset="0"
         id="stop20" /></linearGradient><linearGradient
       id="swatch19"><stop
         style="stop-color:#4d280e;stop-opacity:1;"
         offset="0"
         id="stop19" /></linearGradient><linearGradient
       xlink:href="#swatch19"
       id="linearGradient22"
       x1="66.190735"
       y1="-17.133753"
       x2="110.02575"
       y2="-17.133753"
       gradientUnits="userSpaceOnUse" /><filter
       y="-0.083746667"
       height="1.1674933"
       style="color-interpolation-filters:sRGB"
       id="filter28"
       x="-0.057147892"
       width="1.1142958"><feGaussianBlur
         stdDeviation="5"
         result="result6"
         id="feGaussianBlur27" /><feComposite
         result="result8"
         in="SourceGraphic"
         operator="atop"
         in2="result6"
         id="feComposite27" /><feComposite
         result="result9"
         operator="over"
         in2="SourceAlpha"
         in="result8"
         id="feComposite28" /><feColorMatrix
         values="1 0 0 0 0 0 1 0 0 0 0 0 1 0 0 0 0 0 1 0 "
         result="result10"
         id="feColorMatrix28" /><feBlend
         in="result10"
         mode="normal"
         in2="result6"
         id="feBlend28" /></filter><linearGradient
       xlink:href="#swatch2"
       id="linearGradient2"
       x1="-30.254364"
       y1="278.36362"
       x2="542.25433"
       y2="278.36362"
       gradientUnits="userSpaceOnUse" /></defs><g
     id="g1"
     style="display:inline"
     transform="matrix(0.81279447,0,0,0.81279447,-474.11202,37.842535)"><use
       x="0"
       y="0"
       xlink:href="#g7"
       id="use79"
       transform="matrix(0.24999999,0,0,0.24999999,916.07907,-34.918916)"
       style="stroke-width:4" /><g
       id="g7"
       style="display:inline;stroke-width:0.5"
       transform="matrix(2,0,0,2,-1213.2366,46.558555)"><rect
         style="display:none;fill:url(#swatch2);fill-opacity:1;stroke:none;stroke-width:2.02749;stroke-linejoin:round"
         id="rect1"
         width="572.50873"
         height="572.50873"
         x="-30.25436"
         y="-7.890738"
         transform="matrix(1.1002899,0,0,1.1002899,-25.629131,-37.876455)" /><circle
         style="display:inline;fill:url(#linearGradient2);fill-opacity:1;stroke-width:2.06863"
         id="path1"
         cx="256"
         cy="278.36362"
         r="286.25436"
         transform="matrix(1.1002899,0,0,1.1002899,-25.629131,-37.876455)" /><g
         style="display:inline;fill:url(#swatch19);stroke-width:0.5"
         id="g17"
         transform="matrix(10.617386,0,0,8.6024948,-687.58958,395.44181)"><path
           d="m 89.655046,8.5844276 c 12.104714,0 21.917504,-2.6863488 21.917504,-5.9999993 0,-2.15834952 -3.61507,-4.0504496 -9.86287,-5.1076487 l -8.767007,-30.8923466 -13.150507,-6 3.287627,8.999998 -5.479378,27.8923486 c -6.247806,1.0571991 -9.86288,2.94929918 -9.86288,5.1076487 0,3.3136505 9.812798,5.9999993 21.917511,5.9999993 z"
           stroke="#000000"
           stroke-width="5.12844"
           stroke-linecap="round"
           stroke-linejoin="round"
           id="path22"
           style="display:inline;fill:#000000;fill-opacity:1;stroke:none;stroke-width:0.103711;stroke-dasharray:none" /><path
           d="m 88.108246,6.8662448 c 12.104714,0 21.917504,-2.6863488 21.917504,-5.99999927 0,-2.15834943 -3.61507,-4.05044963 -9.86287,-5.10764873 l -8.767007,-30.8923448 -13.150507,-6 3.287627,8.999998 -5.479378,27.8923468 c -6.247806,1.0571991 -9.86288,2.9492993 -9.86288,5.10764873 0,3.31365047 9.812798,5.99999927 21.917511,5.99999927 z"
           stroke="#000000"
           stroke-width="5.12844"
           stroke-linecap="round"
           stroke-linejoin="round"
           id="path29"
           style="fill:url(#linearGradient22);stroke:#000000;stroke-width:0.103711;stroke-dasharray:none;stroke-opacity:1" /></g><g
         id="g12"
         transform="matrix(1.8830542,0.1647459,-0.1647459,1.8830542,649.40769,144.2992)"
         style="display:inline;stroke-width:0.5"><path
           d="m -133.79175,1.1880181 a 46.741684,118.22628 60 0 0 -29.42489,5.1270265 39.605549,99.10144 60 0 1 43.67867,8.9498674 39.605549,99.10144 60 0 1 -66.0213,83.850556 39.605549,99.10144 60 0 1 -105.62747,15.250402 39.605549,99.10144 60 0 1 14.08222,-42.29454 46.741684,118.22628 60 0 0 -26.07551,59.7696 46.741684,118.22628 60 0 0 125.75692,-18.6329 46.741684,118.22628 60 0 0 79.016989,-99.593896 46.741684,118.22628 60 0 0 -35.385629,-12.4261159 z"
           style="display:inline;opacity:0.5;fill:#ffffff;stroke-width:2.00859;stroke-linejoin:round;filter:url(#filter28)"
           id="path13" /><path
           d="m -133.79175,1.1880181 a 46.741684,118.22628 60 0 0 -29.42489,5.1270265 39.605549,99.10144 60 0 1 43.67867,8.9498674 39.605549,99.10144 60 0 1 -66.0213,83.850556 39.605549,99.10144 60 0 1 -105.62747,15.250402 39.605549,99.10144 60 0 1 14.08222,-42.29454 46.741684,118.22628 60 0 0 -26.07551,59.7696 46.741684,118.22628 60 0 0 125.75692,-18.6329 46.741684,118.22628 60 0 0 79.016989,-99.593896 46.741684,118.22628 60 0 0 -35.385629,-12.4261159 z"
           style="fill:#ffffff;stroke-width:2.00859;stroke-linejoin:round"
           id="path28" /></g><g
         id="g19"
         transform="matrix(1.6422952,0,0,1.6422952,-37.696808,26.184169)"
         style="fill:url(#swatch20);fill-opacity:1;stroke-width:0.5"><g
           id="g25"
           style="fill:url(#swatch20);fill-opacity:1;stroke:#000000;stroke-width:0.5;stroke-opacity:1"
           transform="translate(2,2)"><rect
             style="fill:url(#swatch25);fill-opacity:1;stroke:none;stroke-width:3.23416;stroke-linejoin:miter;stroke-dasharray:none"
             id="rect2"
             width="14.827506"
             height="14.796682"
             x="298.83499"
             y="298.97992"
             transform="matrix(0.60890393,0,0,0.60890393,20.953735,-17.943643)" /><path
             id="path25"
             d="m 230.29258,165.2218 v -19.65413 h -19.65333 v -39.308 h -6.43867 v 39.308 H 184.20726 V 165.2218 H 99.154476 v 6.77707 h 85.052784 v 19.31454 h 19.99332 v 52.862 h 6.43867 v -52.862 h 19.65333 v -19.31454 h 19.992 v -6.77707 z m -6.77733,19.31454 h -32.52933 v -32.53067 h 32.52933 v 32.53067"
             style="display:inline;fill:none;fill-opacity:1;fill-rule:evenodd;stroke:#000000;stroke-width:1.12647;stroke-dasharray:none;stroke-opacity:1" /></g><path
           id="path10"
           d="m 204.91554,172.88348 h 6.7771 v -6.77707 h -6.7771 v 6.77707"
           style="display:inline;fill:url(#swatch20);fill-opacity:1;fill-rule:evenodd;stroke:none;stroke-width:0.0684035" /><path
           id="path18"
           d="m 231.2085,166.1064 v -19.65413 h -19.65333 v -39.308 h -6.43867 v 39.308 h -19.99332 v 19.65413 h -85.05279 v 6.77707 h 85.05279 v 19.31454 h 19.99332 v 52.862 h 6.43867 v -52.862 h 19.65333 v -19.31454 h 19.992 v -6.77707 z m -6.77733,19.31454 h -32.52933 v -32.53067 h 32.52933 v 32.53067"
           style="display:inline;fill:url(#swatch20);fill-opacity:1;fill-rule:evenodd;stroke:none;stroke-width:0.0666665" /></g></g></g></svg>
