<?xml version="1.0" encoding="UTF-8" standalone="no"?>
<svg
   version="1.1"
   id="Layer_1"
   x="0px"
   y="0px"
   width="400"
   viewBox="0 0 400 400"
   enable-background="new 0 0 1024 1024"
   xml:space="preserve"
   sodipodi:docname="∴ POST ICONS.svg"
   inkscape:version="1.4 (86a8ad7, 2024-10-11)"
   inkscape:export-filename="..\blog-images\docs\XYZ.svg"
   inkscape:export-xdpi="96"
   inkscape:export-ydpi="96"
   height="400"
   inkscape:export-batch-path="..\blog-images\docs"
   inkscape:export-batch-name=""
   xmlns:inkscape="http://www.inkscape.org/namespaces/inkscape"
   xmlns:sodipodi="http://sodipodi.sourceforge.net/DTD/sodipodi-0.dtd"
   xmlns="http://www.w3.org/2000/svg"
   xmlns:svg="http://www.w3.org/2000/svg"><defs
   id="defs5"><linearGradient
     id="swatch19"
     inkscape:swatch="solid"
     gradientTransform="matrix(0.65421349,0,0,0.59391333,310.91873,514.51866)"><stop
       style="stop-color:#4d280e;stop-opacity:1;"
       offset="0"
       id="stop19" /></linearGradient><linearGradient
     id="swatch20"
     inkscape:swatch="solid"
     gradientTransform="matrix(0.0187161,0,0,0.01777778,429.33733,895.35266)"><stop
       style="stop-color:#fafa00;stop-opacity:1;"
       offset="0"
       id="stop20" /></linearGradient><linearGradient
     id="swatch25"
     inkscape:swatch="solid"
     gradientTransform="matrix(3.6718463,0,0,3.6983119,-790.31805,806.23523)"><stop
       style="stop-color:#000000;stop-opacity:1;"
       offset="0"
       id="stop25" /></linearGradient><linearGradient
     id="swatch2"
     inkscape:swatch="solid"
     gradientTransform="matrix(0.421875,0,0,0.421875,-710.56631,355.3757)"><stop
       style="stop-color:#a09660;stop-opacity:1;"
       offset="0"
       id="stop2" /></linearGradient></defs><sodipodi:namedview
   id="namedview5"
   pagecolor="#ffffff"
   bordercolor="#000000"
   borderopacity="0.25"
   inkscape:showpageshadow="2"
   inkscape:pageopacity="0.0"
   inkscape:pagecheckerboard="0"
   inkscape:deskcolor="#d1d1d1"
   inkscape:zoom="1.0535891"
   inkscape:cx="115.79467"
   inkscape:cy="83.524022"
   inkscape:window-width="2516"
   inkscape:window-height="1417"
   inkscape:window-x="36"
   inkscape:window-y="-8"
   inkscape:window-maximized="1"
   inkscape:current-layer="g22"><inkscape:page
     x="0"
     y="0"
     width="400"
     height="400"
     id="page1"
     margin="0"
     bleed="0"
     inkscape:label="copy_array" /></sodipodi:namedview>





<g
   id="g22"
   transform="translate(21.681995,21.681995)"
   style="display:inline"><rect
     style="fill:#ffffff;fill-opacity:1;fill-rule:evenodd"
     id="rect13"
     width="400"
     height="400"
     x="-21.681995"
     y="-21.681995"
     rx="0.00036621097"
     ry="0.00036621097" /><path
     id="path13"
     style="display:inline;fill:none;fill-rule:evenodd;stroke:url(#swatch2);stroke-width:8.00002;stroke-dasharray:none"
     d="M 352.636,312.05651 A 40.579493,40.579493 0 0 1 312.0565,352.636 40.579493,40.579493 0 0 1 271.47703,312.05651 40.579493,40.579493 0 0 1 312.0565,271.47702 40.579493,40.579493 0 0 1 352.636,312.05651 Z" /><path
     id="path6"
     style="fill:none;fill-rule:evenodd;stroke:url(#swatch2);stroke-width:8.00002;stroke-dasharray:none"
     d="m 285.76676,245.18726 a 40.579493,40.579493 0 0 1 -40.5795,40.57949 40.579493,40.579493 0 0 1 -40.57947,-40.57949 40.579493,40.579493 0 0 1 40.57947,-40.5795 40.579493,40.579493 0 0 1 40.5795,40.5795 z" /><path
     id="path9"
     style="fill:none;fill-rule:evenodd;stroke:url(#swatch2);stroke-width:8.00002;stroke-dasharray:none"
     d="m 152.02827,111.44875 a 40.579493,40.579493 0 0 1 -40.5795,40.57949 40.579493,40.579493 0 0 1 -40.579488,-40.57949 40.579493,40.579493 0 0 1 40.579488,-40.579491 40.579493,40.579493 0 0 1 40.5795,40.579491 z" /><path
     id="path11"
     style="opacity:0.9;fill:none;fill-rule:evenodd;stroke:url(#swatch19);stroke-width:8.00002;stroke-dasharray:none"
     d="M 85.15901,44.579502 A 40.579493,40.579493 0 0 1 44.57951,85.158991 40.579493,40.579493 0 0 1 4.0000104,44.579502 40.579493,40.579493 0 0 1 44.57951,4.0000108 40.579493,40.579493 0 0 1 85.15901,44.579502 Z" /><path
     style="display:inline;opacity:0.5;fill:none;stroke:url(#swatch25);stroke-width:4.5;stroke-linejoin:round;stroke-dasharray:4.5, 4.5;stroke-dashoffset:0;paint-order:fill markers stroke"
     d="M 47.785309,47.785332 109.03227,109.03221"
     id="path7" /><circle
     style="opacity:0.5;fill:url(#swatch25);fill-rule:evenodd;stroke-width:1"
     id="circle1"
     cx="111.44878"
     cy="111.44875"
     r="2.5" /><path
     id="path1"
     style="fill:none;fill-rule:evenodd;stroke:url(#swatch2);stroke-width:8.00002;stroke-dasharray:none"
     d="m 218.89751,178.31801 a 40.579493,40.579493 0 0 1 -40.5795,40.57949 40.579493,40.579493 0 0 1 -40.57947,-40.57949 40.579493,40.579493 0 0 1 40.57947,-40.5795 40.579493,40.579493 0 0 1 40.5795,40.5795 z" /><circle
     style="opacity:0.5;fill:url(#swatch25);fill-rule:evenodd;stroke-width:1"
     id="circle2"
     cx="44.57951"
     cy="44.579502"
     r="2.5" /></g></svg>
