<?xml version="1.0" encoding="UTF-8" standalone="no"?>
<svg
   version="1.1"
   id="Layer_1"
   x="0px"
   y="0px"
   width="400"
   viewBox="0 0 400 400"
   enable-background="new 0 0 1024 1024"
   xml:space="preserve"
   height="400"
   xmlns="http://www.w3.org/2000/svg"
   xmlns:svg="http://www.w3.org/2000/svg"><defs
   id="defs5" />




<rect
   style="fill:#ffffff;fill-opacity:1;fill-rule:evenodd;stroke-width:1"
   id="rect1"
   width="400"
   height="400"
   x="0"
   y="0"
   rx="0.00036621094"
   ry="0.00036621094" /><g
   id="g5"
   transform="matrix(0.45664879,0,0,0.45664879,-34.282421,-30.99587)"
   style="stroke-width:2.18987"><path
     fill="#000000"
     opacity="1"
     stroke="none"
     d="m 739.84985,622.74365 c -29.0932,57.79041 -72.79742,99.66248 -132.05767,124.9541 -25.1753,10.74457 -51.5749,16.76429 -78.89002,18.36481 -4.99384,0.29254 -6.03015,2.07196 -5.99689,6.60669 0.18238,24.82922 0.10907,49.6604 0.0971,74.49091 -0.004,7.88391 -0.0501,7.97039 -7.68402,7.86633 -13.62952,-0.18579 -12.28296,1.81079 -12.30707,-12.25043 -0.04,-23.33087 -0.15701,-46.6629 0.0518,-69.99182 0.0437,-4.87982 -1.27829,-6.36798 -6.35434,-6.77789 -75.67044,-6.11084 -136.50806,-39.86798 -182.93549,-99.58667 -28.57223,-36.75195 -44.84948,-78.74457 -50.83633,-124.8031 -0.57855,-4.45093 -1.13822,-8.95172 -1.09116,-13.42292 0.0451,-4.2846 -1.74936,-5.33551 -5.71158,-5.31707 -25.66336,0.1195 -51.32763,0.062 -76.99157,0.0373 -8.26204,-0.008 -8.28929,-0.0428 -8.25217,-8.28705 0.0577,-12.82321 -1.17114,-11.64786 11.45729,-11.68158 24.33064,-0.065 48.66209,-0.10763 72.99191,0.0457 4.39345,0.0276 6.52675,-0.81674 6.82402,-5.86985 1.46509,-24.90173 6.3768,-49.16577 15.3028,-72.48373 22.22568,-58.06149 60.18033,-102.68445 114.4697,-133.26169 27.79171,-15.65304 57.69284,-24.85074 89.14129,-29.32065 5.10129,-0.72503 10.2742,-1.25439 15.41767,-1.2865 4.9765,-0.0311 6.55734,-1.98507 6.51889,-6.92106 -0.19605,-25.16249 -0.0939,-50.32739 -0.0765,-75.49144 0.005,-7.57236 0.0342,-7.57234 7.34109,-7.59006 12.75766,-0.0309 12.74399,-0.0309 12.74527,12.62421 0.002,23.49737 0.13532,46.99568 -0.0563,70.49139 -0.0403,4.94916 1.60382,6.60236 6.54071,6.88275 41.93347,2.38154 80.57367,15.23893 116.2398,37.24219 36.97565,22.81116 65.72309,53.56384 86.92829,91.31479 17.00158,30.26724 27.28607,62.77841 30.78796,97.38986 0.3689,3.64575 1.09888,7.27878 0.81195,10.93482 -0.336,4.2821 1.62055,5.38208 5.59125,5.36007 23.99677,-0.13296 47.99463,-0.0826 71.99213,-0.0918 2.83294,-0.001 5.66784,0.0777 8.49829,-0.005 3.70263,-0.10804 5.02643,1.73461 4.8388,5.25845 -0.16815,3.15814 -0.22174,6.33987 -0.0399,9.49472 0.22436,3.8938 -1.49683,5.40784 -5.28711,5.36688 -8.66468,-0.0936 -17.33112,-0.0129 -25.99689,-0.0143 -17.99799,-0.003 -35.99628,0.0444 -53.99359,-0.0685 -3.54089,-0.0223 -5.44519,0.59729 -5.62921,4.83392 -1.44275,33.22046 -9.89801,64.68805 -24.40003,94.96295 M 281.32806,497.52786 c -0.61163,4.14911 1.2016,5.50391 5.32029,5.47186 19.66229,-0.15322 39.32666,-0.11672 58.98996,-0.0522 14.07446,0.0462 12.45663,-1.64435 12.53598,12.52502 0.0414,7.40308 -0.0466,7.50068 -7.54664,7.508 -21.16326,0.0206 -42.32739,0.0798 -63.48922,-0.10321 -4.52774,-0.0391 -6.24478,1.32049 -5.91254,6.01703 0.97757,13.81982 2.94333,27.52112 6.51801,40.84668 15.51086,57.82068 48.18817,103.71319 97.31625,137.81256 33.02963,22.92554 69.85898,35.45477 109.81284,39.04144 7.93069,0.71198 8.0672,0.55542 8.06085,-7.53674 -0.016,-20.33002 -0.0439,-40.66004 -0.0452,-60.99005 -7.6e-4,-12.08405 -0.59711,-10.19019 10.5567,-10.36621 0.99958,-0.0158 1.99964,-0.007 2.99945,-0.004 6.5611,0.0234 6.63428,0.10633 6.63062,6.75476 -0.0121,21.99646 -0.0207,43.99286 -0.0251,65.98932 -10e-4,6.25165 0.15125,6.5874 6.47913,6.14905 8.79535,-0.60938 17.57263,-1.63562 26.19995,-3.47528 80.50714,-17.16815 136.47241,-64.7702 170.75781,-138.69513 11.15851,-24.05957 16.9737,-49.67358 18.39008,-76.23456 0.21387,-4.01086 -0.78449,-5.4566 -5.19879,-5.40149 -21.65985,0.27069 -43.32477,0.18408 -64.98773,0.1352 -6.48163,-0.0147 -6.84827,-0.50452 -6.88208,-6.76105 -0.0117,-2.16626 -0.006,-4.33267 -0.008,-6.499 -0.006,-6.63946 -0.006,-6.66888 6.65466,-6.67822 21.66321,-0.0304 43.32685,-0.11099 64.98926,0.012 4.0777,0.0231 5.70312,-1.21298 5.43982,-5.46026 -0.40228,-6.48892 -1.16193,-12.91498 -2.10968,-19.3382 -6.59888,-44.72259 -25.1167,-84.05969 -54.47327,-118.16623 -36.23517,-42.09808 -82.07348,-67.70517 -136.75098,-77.43582 -9.28723,-1.6528 -18.6513,-2.75088 -27.74963,-2.89956 -1.18799,1.21786 -0.89892,2.25067 -0.89709,3.22891 0.0432,22.66247 0.0986,45.32495 0.12445,67.98742 0.008,7.34821 -0.0266,7.34821 -7.56128,7.35566 -12.5791,0.0124 -12.55942,0.0124 -12.54483,-12.33301 0.0238,-20.16342 -0.0547,-40.32736 0.0874,-60.48984 0.029,-4.10953 -1.3259,-5.8815 -5.5278,-5.35321 -3.79297,0.47687 -7.62699,0.62158 -11.42429,1.07047 -53.06109,6.27212 -98.80551,28.26828 -136.21448,66.14132 -40.76037,41.26605 -64.05593,91.12796 -68.51541,150.22641 z"
     id="path1"
     style="stroke-width:1.87325" /><path
     fill="#000000"
     opacity="1"
     stroke="none"
     d="m 819.5459,600.42316 c -1.74951,-2.40137 -2.5658,-5.07135 -5.06476,-6.74549 -2.84937,2.04224 -4.09607,5.20441 -5.85858,7.93665 -3.5213,5.45868 -6.92169,10.9953 -10.36926,16.50146 -0.79718,1.27326 -1.51709,2.81537 -3.20356,2.89045 -6.57519,0.29266 -13.15863,0.50103 -20.13263,-0.12439 0.99683,-4.74012 3.79279,-7.71161 5.87152,-10.97352 6.35621,-9.97381 12.86048,-19.85839 19.55024,-29.61096 1.90838,-2.7821 1.92401,-4.77704 0.0558,-7.57037 -6.85296,-10.2467 -13.46014,-20.65808 -20.1261,-31.02918 -0.96362,-1.4992 -2.4262,-2.79187 -2.31915,-5.69775 6.63989,0 13.32349,-0.15424 19.99182,0.0977 1.90314,0.0718 2.64539,2.30615 3.5943,3.87591 4.11035,6.79938 8.26361,13.5727 12.77875,20.97437 4.28479,-5.10431 7.23151,-10.15112 9.74445,-15.27606 3.82232,-7.79547 9.13208,-11.7735 18.07354,-10.03015 2.88428,0.56244 5.96527,-0.43134 8.83234,0.61126 1.01843,2.26258 -0.73114,3.53418 -1.65082,4.97211 -6.82208,10.66657 -13.61316,21.35626 -20.66223,31.87231 -1.81903,2.71369 -1.53345,4.54291 0.17682,7.1037 7.95715,11.91394 15.71948,23.95813 23.51038,35.98243 0.77203,1.19152 2.13836,2.21118 1.4118,4.83788 -6.61554,0.34662 -13.49615,0.5019 -20.37207,-0.18182 -1.51868,-0.15106 -2.1933,-1.94067 -2.98956,-3.19391 -3.57361,-5.62488 -7.11292,-11.27154 -10.84302,-17.22265 z"
     id="path2"
     style="stroke-width:1.87325" /><path
     fill="#000000"
     opacity="1"
     stroke="none"
     d="m 554.76575,156.80966 c 4.30493,-0.60069 6.53601,1.1691 8.40466,4.49375 5.94397,10.5754 12.18091,20.98616 18.68585,32.11254 6.10761,-10.64032 12.12256,-20.55288 17.52338,-30.78947 2.36859,-4.48943 5.22552,-6.2964 10.22571,-5.92293 5.242,0.39153 10.53595,0.0876 15.60186,0.0876 0.93506,2.86217 -0.64758,4.17314 -1.5484,5.6548 -9.69043,15.93967 -19.38806,31.87526 -29.17804,47.7538 -1.54827,2.51113 -2.30401,5.02838 -2.27319,7.9823 0.10272,9.8289 -0.16144,19.66519 0.11951,29.48708 0.12823,4.48263 -1.51831,5.98813 -5.80536,5.65692 -3.31195,-0.25589 -6.68402,-0.28818 -9.987,0.026 -4.76111,0.45282 -6.02399,-1.672 -5.90662,-6.10136 0.2428,-9.15702 -0.0788,-18.32833 0.1225,-27.48737 0.0917,-4.173 -0.90643,-7.71738 -3.13879,-11.2655 -9.5777,-15.22292 -18.95087,-30.57474 -28.36982,-45.89727 -0.85131,-1.38498 -2.04931,-2.65545 -1.95062,-5.79162 5.61231,0 11.31055,0 17.47437,7.9e-4 z"
     id="path3"
     style="stroke-width:1.87325" /><path
     fill="#000000"
     opacity="1"
     stroke="none"
     d="m 486.08511,391.46753 c 0.45999,-3.31479 2.52661,-3.62344 4.85202,-3.62042 14.66074,0.0191 29.32288,0.13748 43.98139,-0.0382 4.96985,-0.0595 5.17822,2.82339 5.17151,6.47726 -0.0524,28.48847 -0.0323,56.97708 -0.0663,85.46558 -0.008,6.75421 -0.0632,6.80939 6.93311,6.81723 28.32196,0.0317 56.64459,0.12704 84.96521,-0.0621 4.82843,-0.0322 6.38782,1.50662 6.30469,6.26507 -0.23847,13.65701 -0.25281,27.32349 -0.0173,40.98035 0.0842,4.8797 -1.79651,6.31415 -6.45135,6.28894 -28.1543,-0.15241 -56.30976,-0.0806 -84.46479,-0.1189 -7.14477,-0.01 -7.30871,0.12189 -7.30285,7.16431 0.0232,27.98871 0.0381,55.97736 0.0275,83.96606 -0.003,6.75232 -0.25726,6.94715 -7.09588,6.91529 -13.98572,-0.0651 -27.97339,-0.27808 -41.95612,-0.10303 -4.77267,0.0598 -4.93976,-2.55365 -4.93753,-6.04431 0.018,-28.15522 -0.046,-56.31043 -0.0453,-84.46564 1.9e-4,-7.72369 -0.48166,-7.72382 -8.30029,-7.66321 -25.98294,0.20166 -51.96887,0.0116 -77.95368,-0.033 -0.33157,-5.5e-4 -0.66247,-0.0707 -0.99465,-0.0945 -10.67972,-0.76471 -10.70121,-0.76434 -10.7305,-11.80689 -0.0313,-11.82849 0.10073,-23.65896 -0.0841,-35.48471 -0.0674,-4.31222 1.46558,-5.72696 5.82739,-5.72729 28.31662,-0.002 56.63321,-0.25452 84.94983,-0.42148 7.17343,-0.0423 7.26438,-0.088 7.27316,-7.24066 0.0357,-28.98785 0.0452,-57.97568 0.1149,-87.41571 z"
     id="path4"
     style="stroke-width:1.87325" /><path
     fill="#000000"
     opacity="1"
     stroke="none"
     d="m 568.2088,669.28461 c -3.30908,-0.10657 -3.50275,-2.08954 -3.50488,-4.21405 -0.004,-4.16553 0.11865,-8.33655 -0.0569,-12.49488 -0.14477,-3.42907 2.09967,-5.49102 3.9538,-7.78723 15.27917,-18.92212 30.58722,-37.82098 45.88171,-56.73083 0.6095,-0.7536 1.17054,-1.54645 2.35608,-3.12 -4.6745,0 -8.58319,0.0192 -12.4917,-0.004 -9.98767,-0.0587 -19.97516,-0.16944 -29.96289,-0.1864 -3.06738,-0.005 -4.62933,-1.20856 -4.58246,-4.44104 0.24689,-17.00525 -2.60681,-14.21021 13.45191,-14.35614 18.1604,-0.16498 36.32342,-0.0314 54.48535,-0.032 8.54993,-2.4e-4 8.20673,0.0135 8.65112,8.35407 0.34223,6.42377 -1.68976,11.27386 -5.80731,16.21631 -15.9884,19.19116 -31.53387,38.75134 -47.23083,58.18493 -0.1911,0.23664 -0.20453,0.6167 -0.33057,1.02619 1.40424,1.69592 3.37573,0.92944 5.05322,0.93847 14.66242,0.0793 29.32819,0.21088 43.9867,-0.0414 4.67877,-0.0805 6.42401,1.16626 6.34814,6.11151 -0.1933,12.61212 0.0268,12.61011 -12.7381,12.60681 -22.32745,-0.006 -44.65496,-0.004 -67.4624,-0.0305 z"
     id="path5"
     style="stroke-width:1.87325" /></g>
</svg>
